<?xml version="1.0" encoding="utf-8"?>
<!-- Generator: Adobe Illustrator 21.1.0, SVG Export Plug-In . SVG Version: 6.00 Build 0)  -->
<svg version="1.1" id="Layer_1" xmlns="http://www.w3.org/2000/svg" xmlns:xlink="http://www.w3.org/1999/xlink" x="0px" y="0px"
	 viewBox="0 0 489.7 475.5" style="enable-background:new 0 0 489.7 475.5;" xml:space="preserve">
<style type="text/css">
	.st0{fill:#231F20;}
</style>
<g>
	<g>
		<path class="st0" d="M245.7,475.5c-33.6,0-202.6-0.8-225.5-17.3l-0.7-0.5l-0.6-0.7c-2.6-3.1-9.5-11.5-14.4-76.6
			C1.7,343,0.1,294.3,0,243.1C-0.1,155,4.5,42.5,18,15.4l0.5-0.9l0.7-0.7c2.8-3,7-7.6,76.2-10.9C134.1,1,185.5,0,240,0
			c54.5,0,106.1,1,145.3,2.9c69.4,3.3,74.7,7.9,77.6,10.4l1,0.8l0.6,1.1c17.5,31.6,34.4,132.7,19.6,267.3
			c-11.2,101.7-25,141.8-43.2,169.4C418.9,471.7,299.2,475.5,245.7,475.5z M29.4,447.2c12.9,6.9,91.6,14.1,216.4,14.1
			c51.7,0,63.3,1.1,100.7-1.3c51-3.3,81.9-9.3,88.7-19.5c8-12.8,32.2-116.2,32.8-214.3c0.6-102.3-5-177.3-15.1-202.4
			c-12.8-4.7-89.7-9.6-212.9-9.6c-121.5,0-202.8-1.6-210.1,9.4c-3.8,16.5-11,124.6-10.8,232c0.1,50.9-3.2,86.7-0.4,123.7
			C22.6,431.1,27.6,444.1,29.4,447.2z"/>
	</g>
	<path class="st0" d="M347.1,49.9c-4.1,6.6-4.9,24.7-8.5,51.6c-12.8,6.4-21.7,3.5-35.3,13.3c0,126.7,62.7,312.9,62.7,312.9
		s53.2-199.1,47.9-317.4c-4.9-3.8-16.3-4.1-35.9-9.1c-4.1-32.8-5.4-43.1-9.7-51.3C358.8,47.6,347.1,49.9,347.1,49.9z"/>
	<g>
		<path class="st0" d="M84.1,224.4c-6.5-65.7-5.6-139.7,0-163.9c16-7,17.5-6.6,30.9,0c10.5,8.9,104.7,143.5,113.7,136.2
			c8.4-23.2-6.2-133.9-2.7-142.1c10-6.4,23-5.4,26.5,0s11.8,124.2,0,169.8c-5.1,1.7-18.7,4.8-28.5,0
			c-10.7-9.9-101.5-116-115.8-137.7c-8.8,8.7,7.8,121,2.4,137.7C106.5,231.4,91.8,228.1,84.1,224.4z"/>
	</g>
	<g>
		<path class="st0" d="M245.5,347.2c-12.4,2.3-111.1-6.5-125.7,0c-4.4,8.3-6.9,42.5,0,46.1c18.7,1.4,51.5,2.8,135.4,0
			c2.8,10.7,5.1,12.8,0,26c-11.5,8.9-164.3,3.5-167.7,0c-3.4-3.5-4.9-157.6,0-163.9c14.9-6.3,158.8-7.3,165.2,0
			c2.8,9.7,4.9,17.9,0,26c-76.6-0.2-128.6-6.1-132.9,0c-1.8,9-8.7,34.9,0,40c12.2,1.8,119.2-6.3,125.7,0
			C248.3,330.7,252,340.7,245.5,347.2z"/>
	</g>
</g>
</svg>
